<?xml version="1.0" standalone="no"?>
<!DOCTYPE svg PUBLIC "-//W3C//DTD SVG 20010904//EN"
 "http://www.w3.org/TR/2001/REC-SVG-20010904/DTD/svg10.dtd">
<svg version="1.0" xmlns="http://www.w3.org/2000/svg"
 width="700.000000pt" height="700.000000pt" viewBox="0 0 700.000000 700.000000"
 preserveAspectRatio="xMidYMid meet">
<metadata>
Created by potrace 1.11, written by Peter Selinger 2001-2013
</metadata>
<g transform="translate(0.000000,700.000000) scale(0.100000,-0.100000)"
fill="#000000" stroke="none">
<path d="M95 6903 c55 -54 581 -563 1169 -1133 587 -569 1073 -1037 1078
-1039 5 -2 42 28 81 66 251 241 575 399 942 458 205 34 516 18 709 -36 38 -10
70 -18 71 -16 4 4 555 1782 555 1790 0 4 -1059 7 -2352 7 l-2353 -1 100 -96z"/>
<path d="M6098 4768 l-887 -452 21 -39 c60 -119 126 -330 155 -493 23 -136 23
-432 0 -568 -29 -163 -95 -374 -155 -493 l-21 -39 889 -452 c489 -249 891
-452 894 -452 3 0 6 774 6 1720 0 946 -3 1720 -7 1720 -5 -1 -407 -204 -895
-452z"/>
<path d="M3445 5118 c-665 -74 -1227 -567 -1390 -1218 -36 -145 -47 -241 -47
-400 0 -159 11 -255 47 -400 102 -406 353 -750 717 -983 281 -179 653 -269
990 -239 299 27 534 108 775 269 358 238 601 599 695 1033 19 91 22 134 22
320 0 186 -3 229 -22 320 -75 344 -228 620 -478 860 -345 330 -828 492 -1309
438z m-663 -385 c47 -40 63 -60 107 -133 111 -185 150 -450 87 -586 -29 -60
-53 -86 -117 -126 -64 -39 -99 -97 -99 -164 0 -27 27 -305 60 -619 33 -313 60
-595 60 -625 0 -101 -65 -164 -171 -164 -97 -1 -169 67 -169 159 0 20 27 296
60 612 33 317 60 601 60 631 0 71 -24 118 -79 156 -113 79 -142 119 -161 229
-34 195 84 527 224 629 51 37 94 37 138 1z m596 15 c9 -9 12 -84 12 -278 0
-279 2 -290 45 -290 43 0 45 11 45 285 0 282 3 300 51 293 l24 -3 5 -278 c5
-291 6 -297 50 -297 44 0 45 6 50 297 l5 278 24 3 c48 7 51 -11 51 -293 0
-190 3 -264 12 -273 16 -16 53 -15 67 1 7 9 12 104 13 282 3 242 5 269 21 279
12 8 22 8 35 0 15 -10 17 -38 20 -305 3 -305 -3 -381 -38 -449 -21 -41 -69
-87 -123 -119 -52 -32 -87 -95 -87 -158 0 -28 27 -310 60 -626 33 -317 60
-597 60 -623 0 -92 -71 -159 -170 -159 -100 0 -170 67 -170 161 0 27 27 307
60 623 33 315 60 596 60 624 0 70 -34 124 -107 171 -63 40 -95 80 -121 148
-14 36 -17 98 -20 366 -2 239 0 327 9 338 14 17 41 18 57 2z m1210 0 c17 -17
17 -1110 0 -1137 -9 -15 0 -133 45 -568 32 -301 57 -561 57 -577 0 -35 -33
-95 -65 -118 -40 -30 -104 -42 -151 -29 -83 22 -126 78 -125 164 0 29 25 290
55 582 31 291 56 533 56 536 0 4 -9 9 -20 12 -10 3 -33 27 -50 53 -69 110
-101 256 -82 377 13 81 186 660 208 695 16 24 53 29 72 10z"/>
<path d="M1167 1137 l-1167 -1132 2347 -3 c1290 -1 2348 0 2351 2 3 4 -545
1784 -553 1793 -1 2 -33 -6 -71 -16 -193 -54 -504 -70 -709 -36 -314 51 -587
169 -830 360 -44 35 -102 86 -130 114 -27 28 -54 51 -60 50 -5 0 -535 -509
-1178 -1132z"/>
</g>
</svg>
