<svg width="1023" height="682" xmlns="http://www.w3.org/2000/svg">
 <g>
  <title>background</title>
  <rect x="-1" y="-1" width="1025" height="684" id="canvas_background" fill="none"/>
 </g>

 <g>
  <title>Layer 1</title>
  <path d="m0,0l1023,0l0,682l-1023,0l0,-682z" fill="#fff" id="svg_1"/>
  <path d="m352,341l-352,-341l458,0l-106,341l-352,341l458,0l-106,-341l671,-341l0,682" fill="#dc2819" id="svg_2"/>
  <circle stroke-width="15" fill="#1a3c82" cx="354" cy="341" r="166" id="svg_3" stroke="#fff"/>
  <g id="svg_32" fill="#fff">
   <g id="svg_12" transform="matrix(0.5166108577718667,0,0,0.48567643169119906,-405.38463958947125,-414.61664207180377) " stroke="null">
    <path d="m1295.97573,1301.73133c-24.512,0 -57.023,66.013 -57.023,116.405c0,33.214 11.124,51.245 27.742,59.689c13.402,6.82 21.256,21.174 19.795,36.137l-23.904,244.128c-0.916,9.424 2.184,18.797 8.539,25.798c6.356,7.015 15.379,11.011 24.852,11.011c9.473,0 18.494,-3.997 24.851,-11.011c6.356,-7.001 9.454,-16.375 8.539,-25.798l-23.904,-244.128c-1.462,-14.963 6.405,-29.316 19.794,-36.137c16.618,-8.445 27.742,-26.475 27.742,-59.689c0,-50.392 -31.206,-116.405 -57.023,-116.405z" fill="#ffffff" id="svg_14" stroke="null"/>
    <path d="m1514.77473,1301.73133c-4.512,0 -8.174,3.659 -8.174,8.188l0,100.72c0,4.543 -3.677,8.219 -8.219,8.219c-4.543,0 -8.219,-3.676 -8.219,-8.219l0,-100.72c0,-4.529 -3.664,-8.188 -8.174,-8.188l-0.096,0c-4.511,0 -8.169,3.659 -8.169,8.188l0,100.72c0,4.543 -3.677,8.219 -8.224,8.219c-4.543,0 -8.219,-3.676 -8.219,-8.219l0,-100.72c0,-4.529 -3.658,-8.188 -8.17,-8.188l-0.099,0c-4.511,0 -8.169,3.659 -8.169,8.188l0,100.72c0,4.543 -3.677,8.219 -8.219,8.219c-4.543,0 -8.22,-3.676 -8.22,-8.219l0,-100.72c0,-4.529 -3.663,-8.188 -8.174,-8.188c-4.285,0 -7.755,3.464 -7.755,7.736c0,25.491 0,105.281 0,108.669c0,33.214 11.129,51.245 27.743,59.689c13.406,6.82 21.255,21.174 19.794,36.137l-23.903,244.128c-0.916,9.424 2.183,18.797 8.539,25.798c6.36,7.015 15.382,11.011 24.851,11.011c9.473,0 18.495,-3.997 24.855,-11.011c6.355,-7.001 9.455,-16.375 8.539,-25.798l-23.903,-244.128c-1.462,-14.963 6.405,-29.316 19.794,-36.137c16.613,-8.445 27.738,-26.475 27.738,-59.689c0,-3.388 0,-83.177 0,-108.669c0.003,-4.272 -3.462,-7.736 -7.747,-7.736z" fill="#ffffff" id="svg_15" stroke="null"/>
    <path d="m1648.25873,1534.62233c3.098,0 5.602,-2.503 5.602,-5.603l0,-217.463c0,-5.427 -4.397,-9.825 -9.837,-9.825c-4.705,0 -8.847,3.113 -10.145,7.642l-34.054,118.733c-9.951,34.738 -3.852,72.13 16.633,101.906c1.993,2.892 5.281,4.61 8.782,4.61l-21.883,223.468c-0.916,9.424 2.184,18.797 8.544,25.798c6.355,7.015 15.378,11.011 24.852,11.011c9.468,0 18.489,-3.997 24.85,-11.011c6.356,-7.001 9.455,-16.375 8.538,-25.798l-21.882,-223.468z" fill="#ffffff" id="svg_16" stroke="null"/>
   </g>
   <g id="svg_17" transform="matrix(0.5166108577718667,0,0,0.48567643169119906,-405.38463958947125,-414.61664207180377) " stroke="null"/>
   <g id="svg_18" transform="matrix(0.5166108577718667,0,0,0.48567643169119906,-405.38463958947125,-414.61664207180377) " stroke="null"/>
   <g id="svg_19" transform="matrix(0.5166108577718667,0,0,0.48567643169119906,-405.38463958947125,-414.61664207180377) " stroke="null"/>
   <g id="svg_20" transform="matrix(0.5166108577718667,0,0,0.48567643169119906,-405.38463958947125,-414.61664207180377) " stroke="null"/>
   <g id="svg_21" transform="matrix(0.5166108577718667,0,0,0.48567643169119906,-405.38463958947125,-414.61664207180377) " stroke="null"/>
   <g id="svg_22" transform="matrix(0.5166108577718667,0,0,0.48567643169119906,-405.38463958947125,-414.61664207180377) " stroke="null"/>
   <g id="svg_23" transform="matrix(0.5166108577718667,0,0,0.48567643169119906,-405.38463958947125,-414.61664207180377) " stroke="null"/>
   <g id="svg_24" transform="matrix(0.5166108577718667,0,0,0.48567643169119906,-405.38463958947125,-414.61664207180377) " stroke="null"/>
   <g id="svg_25" transform="matrix(0.5166108577718667,0,0,0.48567643169119906,-405.38463958947125,-414.61664207180377) " stroke="null"/>
   <g id="svg_26" transform="matrix(0.5166108577718667,0,0,0.48567643169119906,-405.38463958947125,-414.61664207180377) " stroke="null"/>
   <g id="svg_27" transform="matrix(0.5166108577718667,0,0,0.48567643169119906,-405.38463958947125,-414.61664207180377) " stroke="null"/>
   <g id="svg_28" transform="matrix(0.5166108577718667,0,0,0.48567643169119906,-405.38463958947125,-414.61664207180377) " stroke="null"/>
   <g id="svg_29" transform="matrix(0.5166108577718667,0,0,0.48567643169119906,-405.38463958947125,-414.61664207180377) " stroke="null"/>
   <g id="svg_30" transform="matrix(0.5166108577718667,0,0,0.48567643169119906,-405.38463958947125,-414.61664207180377) " stroke="null"/>
   <g id="svg_31" transform="matrix(0.5166108577718667,0,0,0.48567643169119906,-405.38463958947125,-414.61664207180377) " stroke="null"/>
  </g>
  <text stroke="null" transform="matrix(1.3318222209039892,0,0,1.7835672907674505,-177.37732740577454,-256.9825758859216) " xml:space="preserve" text-anchor="start" font-family="Helvetica, Arial, sans-serif" font-size="67" id="svg_5" y="354.755642" x="529.197193" stroke-opacity="null" stroke-width="0" fill="#ffffff">EatLocalICT</text>
 </g>
</svg>